<mxfile host="app.diagrams.net" agent="Mozilla/5.0 (Windows NT 10.0; Win64; x64) AppleWebKit/537.36 (KHTML, like Gecko) Chrome/137.0.0.0 Safari/537.36" version="27.1.5">
  <diagram id="yc-RTUulwLYhGjHG3ghP" name="UseCaseDiagram">
    <mxGraphModel grid="1" page="1" gridSize="10" guides="1" tooltips="1" connect="1" arrows="1" fold="1" pageScale="1" pageWidth="850" pageHeight="1100" math="0" shadow="0">
      <root>
        <mxCell id="0" />
        <mxCell id="1" parent="0" />
        <mxCell id="5ClvAuc_YCTr1NtZKduz-1" style="rounded=0;orthogonalLoop=1;jettySize=auto;html=1;entryX=0;entryY=0.5;entryDx=0;entryDy=0;" edge="1" parent="1" source="5ClvAuc_YCTr1NtZKduz-5" target="5ClvAuc_YCTr1NtZKduz-7">
          <mxGeometry relative="1" as="geometry" />
        </mxCell>
        <mxCell id="5ClvAuc_YCTr1NtZKduz-2" style="rounded=0;orthogonalLoop=1;jettySize=auto;html=1;entryX=0;entryY=0.5;entryDx=0;entryDy=0;" edge="1" parent="1" source="5ClvAuc_YCTr1NtZKduz-5" target="5ClvAuc_YCTr1NtZKduz-8">
          <mxGeometry relative="1" as="geometry" />
        </mxCell>
        <mxCell id="5ClvAuc_YCTr1NtZKduz-3" style="rounded=0;orthogonalLoop=1;jettySize=auto;html=1;" edge="1" parent="1" source="5ClvAuc_YCTr1NtZKduz-5" target="5ClvAuc_YCTr1NtZKduz-9">
          <mxGeometry relative="1" as="geometry" />
        </mxCell>
        <mxCell id="5ClvAuc_YCTr1NtZKduz-4" style="rounded=0;orthogonalLoop=1;jettySize=auto;html=1;" edge="1" parent="1" source="5ClvAuc_YCTr1NtZKduz-5" target="5ClvAuc_YCTr1NtZKduz-10">
          <mxGeometry relative="1" as="geometry">
            <mxPoint x="970" y="1190" as="sourcePoint" />
          </mxGeometry>
        </mxCell>
        <mxCell id="5ClvAuc_YCTr1NtZKduz-5" value="User" style="shape=umlActor;verticalLabelPosition=bottom;verticalAlign=top;html=1;outlineConnect=0;" vertex="1" parent="1">
          <mxGeometry x="840" y="980" width="90" height="140" as="geometry" />
        </mxCell>
        <mxCell id="5ClvAuc_YCTr1NtZKduz-6" value="" style="swimlane;startSize=0;" vertex="1" parent="1">
          <mxGeometry x="1120" y="840" width="270" height="420" as="geometry" />
        </mxCell>
        <mxCell id="5ClvAuc_YCTr1NtZKduz-7" value="SignUp/Login" style="ellipse;whiteSpace=wrap;html=1;" vertex="1" parent="5ClvAuc_YCTr1NtZKduz-6">
          <mxGeometry x="65" y="20" width="150" height="50" as="geometry" />
        </mxCell>
        <mxCell id="5ClvAuc_YCTr1NtZKduz-8" value="Get News" style="ellipse;whiteSpace=wrap;html=1;" vertex="1" parent="5ClvAuc_YCTr1NtZKduz-6">
          <mxGeometry x="65" y="80" width="150" height="50" as="geometry" />
        </mxCell>
        <mxCell id="5ClvAuc_YCTr1NtZKduz-9" value="Subscribe for notification" style="ellipse;whiteSpace=wrap;html=1;" vertex="1" parent="5ClvAuc_YCTr1NtZKduz-6">
          <mxGeometry x="65" y="140" width="150" height="50" as="geometry" />
        </mxCell>
        <mxCell id="5ClvAuc_YCTr1NtZKduz-10" value="Save News" style="ellipse;whiteSpace=wrap;html=1;" vertex="1" parent="5ClvAuc_YCTr1NtZKduz-6">
          <mxGeometry x="65" y="200" width="150" height="50" as="geometry" />
        </mxCell>
        <mxCell id="5ClvAuc_YCTr1NtZKduz-11" value="Manage API" style="ellipse;whiteSpace=wrap;html=1;" vertex="1" parent="5ClvAuc_YCTr1NtZKduz-6">
          <mxGeometry x="65" y="290" width="150" height="50" as="geometry" />
        </mxCell>
        <mxCell id="5ClvAuc_YCTr1NtZKduz-12" value="Manage Users" style="ellipse;whiteSpace=wrap;html=1;" vertex="1" parent="5ClvAuc_YCTr1NtZKduz-6">
          <mxGeometry x="65" y="360" width="150" height="50" as="geometry" />
        </mxCell>
        <mxCell id="5ClvAuc_YCTr1NtZKduz-13" style="rounded=0;orthogonalLoop=1;jettySize=auto;html=1;entryX=1;entryY=0.5;entryDx=0;entryDy=0;" edge="1" parent="1" source="5ClvAuc_YCTr1NtZKduz-16" target="5ClvAuc_YCTr1NtZKduz-7">
          <mxGeometry relative="1" as="geometry" />
        </mxCell>
        <mxCell id="5ClvAuc_YCTr1NtZKduz-14" style="edgeStyle=none;shape=connector;rounded=0;orthogonalLoop=1;jettySize=auto;html=1;entryX=1;entryY=0.5;entryDx=0;entryDy=0;strokeColor=default;align=center;verticalAlign=middle;fontFamily=Helvetica;fontSize=11;fontColor=default;labelBackgroundColor=default;endArrow=classic;" edge="1" parent="1" source="5ClvAuc_YCTr1NtZKduz-16" target="5ClvAuc_YCTr1NtZKduz-11">
          <mxGeometry relative="1" as="geometry" />
        </mxCell>
        <mxCell id="5ClvAuc_YCTr1NtZKduz-15" style="edgeStyle=none;shape=connector;rounded=0;orthogonalLoop=1;jettySize=auto;html=1;entryX=1;entryY=0.5;entryDx=0;entryDy=0;strokeColor=default;align=center;verticalAlign=middle;fontFamily=Helvetica;fontSize=11;fontColor=default;labelBackgroundColor=default;endArrow=classic;" edge="1" parent="1" source="5ClvAuc_YCTr1NtZKduz-16" target="5ClvAuc_YCTr1NtZKduz-12">
          <mxGeometry relative="1" as="geometry" />
        </mxCell>
        <mxCell id="5ClvAuc_YCTr1NtZKduz-16" value="Admin" style="shape=umlActor;verticalLabelPosition=bottom;verticalAlign=top;html=1;outlineConnect=0;" vertex="1" parent="1">
          <mxGeometry x="1590" y="950" width="90" height="140" as="geometry" />
        </mxCell>
      </root>
    </mxGraphModel>
  </diagram>
</mxfile>
